 <svg version="1.0" xmlns="http://www.w3.org/2000/svg" width="400.000000pt" height="335.000000pt" viewBox="0 0 400.000000 335.000000" preserveAspectRatio="xMidYMid meet">
<metadata>
Created by potrace 1.12, written by Peter Selinger 2001-2015
</metadata>
<g transform="translate(0.000000,506.000000) scale(0.100000,-0.100000)" fill="#000000" stroke="none">
<path d="M1301 4541 c-7 -5 -43 -9 -79 -10 -92 -2 -171 -12 -178 -22 -3 -5
-14 -9 -25 -9 -10 0 -19 -5 -19 -11 0 -7 10 -9 26 -5 14 4 32 2 39 -4 9 -8 17
-6 30 6 12 13 19 14 24 6 5 -9 33 -6 105 12 54 13 100 26 102 29 10 9 -12 16
-25 8z m-104 -27 c-3 -3 -12 -4 -19 -1 -8 3 -5 6 6 6 11 1 17 -2 13 -5z"></path>
<path d="M5533 4533 c-26 -10 -12 -31 44 -68 83 -55 172 -151 200 -215 13 -30
29 -64 35 -74 14 -26 12 -184 -2 -221 -15 -36 -26 -266 -14 -292 4 -10 9 -22
9 -28 5 -32 44 -110 74 -149 41 -53 120 -126 136 -126 12 0 -3 20 -46 63 -70
67 -138 172 -146 224 -3 18 -9 33 -14 33 -8 0 -6 38 13 205 6 55 15 104 19
109 12 13 11 132 0 154 -5 9 -15 37 -21 62 -25 93 -140 226 -239 275 -28 14
-51 28 -51 31 0 2 10 9 23 14 12 5 15 9 7 9 -8 -1 -21 -3 -27 -6z"></path>
<path d="M1340 4516 c0 -8 -12 -17 -27 -21 -15 -3 -34 -14 -42 -23 -9 -9 -22
-18 -29 -20 -18 -3 -62 -33 -62 -41 0 -3 -20 -27 -43 -53 -24 -25 -50 -61 -57
-80 -8 -18 -17 -35 -21 -38 -13 -10 -37 -126 -35 -170 4 -75 27 -224 37 -34
12 -13 12 -111 0 -134 -5 -9 -14 -38 -20 -65 -12 -53 -47 -111 -103 -174 -21
-24 -38 -47 -38 -53 0 -5 -4 -10 -10 -10 -6 0 -19 -9 -30 -20 -11 -11 -27 -20
-35 -20 -8 0 -15 -4 -15 -8 0 -4 -32 -19 -70 -32 -39 -13 -70 -28 -70 -32 0
-4 12 -10 28 -13 107 -23 232 -124 306 -247 45 -74 76 -212 59 -260 -7 -18
-15 -60 -19 -93 -3 -33 -9 -64 -12 -69 -13 -23 -12 -159 2 -200 31 -91 76
-165 76 -125 0 18 -32 79 -41 79 -5 0 -6 7 -2 16 3 9 0 20 -8 24 -19 12 -18
212 2 236 11 13 14 52 14 163 l0 146 -34 65 c-43 83 -90 141 -155 191 -28 22
-56 43 -63 49 -6 5 -32 15 -57 21 -25 6 -46 15 -46 19 0 4 18 10 40 14 22 3
40 11 40 16 0 6 7 10 16 10 8 0 12 4 9 10 -3 5 0 7 8 5 18 -7 147 116 147 140
0 10 3 15 6 12 10 -10 46 42 38 54 -4 7 -3 9 4 5 6 -4 13 7 17 26 4 18 13 36
19 40 19 12 14 270 -7 358 -18 73 -17 170 3 195 4 6 10 23 14 38 18 75 128
197 239 266 20 12 37 29 37 37 0 8 -2 14 -5 14 -3 0 -5 -6 -5 -14z"></path>
<path d="M5614 4515 c56 -20 113 -28 128 -18 7 4 16 8 21 9 4 1 10 2 15 3 4 1
0 6 -8 11 -8 5 -55 10 -105 9 -89 0 -90 0 -51 -14z"></path>
<path d="M5788 4500 c-15 -11 -32 -20 -40 -20 -7 0 7 -11 30 -25 24 -14 48
-22 53 -19 5 3 9 0 9 -7 0 -7 29 -41 65 -75 35 -34 61 -64 58 -68 -3 -3 1 -16
10 -29 8 -12 17 -32 20 -42 3 -14 5 -12 6 9 1 34 -39 107 -80 147 -16 16 -29
33 -29 39 0 5 -4 10 -8 10 -5 0 -19 9 -31 19 -13 11 -28 22 -34 24 -9 3 -9 8
1 18 9 10 15 10 24 1 7 -7 23 -12 36 -12 38 0 172 -121 217 -196 53 -87 68
-150 68 -274 0 -63 -6 -128 -13 -145 -26 -68 -3 -285 31 -285 5 0 8 -3 7 -7
-5 -16 25 -73 38 -73 19 0 18 13 -4 41 -10 13 -29 55 -42 94 -19 59 -22 81
-16 150 3 45 11 95 17 112 14 43 6 214 -14 291 -24 91 -115 222 -153 222 -10
0 -14 3 -11 7 12 12 -97 82 -138 89 -22 3 -43 11 -46 16 -3 5 -17 -1 -31 -12z"></path>
<path d="M975 4480 c3 -5 8 -10 11 -10 2 0 4 5 4 10 0 6 -5 10 -11 10 -5 0 -7
-4 -4 -10z"></path>
<path d="M948 4445 c2 -14 8 -25 13 -25 16 0 9 -27 -12 -46 -38 -33 -68 -90
-63 -115 4 -16 3 -20 -3 -11 -12 15 -40 -41 -49 -96 -5 -30 -3 -39 9 -39 10 0
17 13 20 37 2 20 21 71 42 113 35 72 58 100 145 170 22 17 28 27 18 27 -9 0
-30 -11 -46 -25 l-30 -25 -10 30 c-14 37 -41 41 -34 5z"></path>
<path d="M885 4433 c-46 -30 -97 -84 -117 -122 -7 -14 -17 -29 -23 -33 -6 -5
-4 -8 4 -8 9 0 4 -9 -12 -26 -48 -48 -66 -223 -40 -392 23 -149 7 -229 -71
-357 -37 -60 -111 -134 -163 -161 -45 -23 -56 -58 -23 -69 25 -8 48 -25 97
-73 19 -18 38 -30 42 -28 4 3 13 -11 20 -30 7 -18 17 -34 22 -34 5 0 9 -6 9
-14 0 -8 6 -21 14 -28 7 -8 17 -25 21 -38 4 -14 12 -28 18 -32 6 -3 12 -23 14
-44 2 -20 7 -43 11 -51 5 -7 2 -59 -5 -116 -22 -173 -24 -217 -12 -301 15
-111 54 -193 126 -263 78 -75 88 -83 101 -83 7 0 12 -4 12 -8 0 -16 96 -50
155 -56 51 -5 55 -4 25 5 -19 5 -40 11 -47 12 -7 2 -16 6 -19 10 -4 4 -16 7
-26 7 -27 0 -23 36 5 44 16 4 28 -1 44 -19 12 -14 29 -25 38 -25 8 0 23 -8 34
-19 18 -18 52 -26 159 -37 51 -6 52 -5 52 21 0 14 -4 24 -9 21 -5 -4 -11 -2
-13 2 -1 4 -24 23 -50 40 -26 18 -69 54 -97 81 -33 33 -51 44 -55 35 -5 -12
78 -104 94 -104 4 0 17 -9 30 -20 13 -11 29 -20 37 -20 7 0 13 -4 13 -9 0 -5
9 -11 20 -14 34 -9 22 -23 -17 -23 -21 1 -40 4 -43 7 -3 3 -32 13 -65 23 -74
23 -107 40 -165 86 -25 20 -53 39 -63 43 -11 4 -21 16 -24 27 -3 11 -10 17
-16 13 -6 -4 -8 0 -4 10 3 10 2 17 -3 17 -6 0 -10 6 -10 13 0 7 -9 29 -20 50
-11 21 -23 58 -27 82 -3 25 -10 45 -15 45 -5 0 -8 43 -7 95 1 52 5 95 9 95 9
0 22 129 21 206 0 30 -7 67 -15 82 -8 16 -13 31 -11 34 2 2 -10 32 -28 66 -37
71 -103 152 -124 152 -8 0 -12 4 -9 9 8 12 -23 37 -67 56 -20 8 -37 22 -37 30
0 8 -5 15 -11 15 -6 0 -9 -10 -7 -22 2 -14 19 -30 48 -45 77 -41 140 -115 201
-235 46 -92 50 -143 24 -318 -24 -166 -8 -313 41 -365 13 -14 24 -35 24 -46 0
-10 23 -42 50 -71 45 -47 49 -54 35 -67 -14 -14 -19 -13 -52 4 -21 11 -53 35
-72 53 -20 17 -38 32 -42 32 -14 0 -88 166 -105 234 -16 69 -16 135 3 241 4
22 7 85 7 140 1 103 -1 110 -57 223 -12 24 -32 55 -45 68 -26 29 -27 34 -7 34
8 0 15 6 15 13 0 22 -11 27 -30 15 -15 -10 -25 -6 -56 25 -21 20 -50 39 -66
42 -15 4 -28 10 -28 14 0 5 26 27 57 51 47 35 60 40 75 31 21 -13 35 3 19 23
-14 16 -4 46 20 63 23 17 60 84 88 162 24 68 29 169 11 245 -5 22 -7 43 -4 47
2 4 0 10 -5 13 -14 9 -7 173 10 236 9 30 25 74 37 97 12 23 22 49 22 58 0 9 4
14 9 11 4 -3 26 13 47 37 22 23 51 49 65 59 14 9 26 23 26 32 0 9 -1 16 -1 16
-1 0 -19 -12 -41 -27z"></path>
<path d="M825 4289 c-4 -6 -5 -13 -2 -16 7 -7 27 6 27 18 0 12 -17 12 -25 -2z"></path>
<path d="M6017 4294 c-9 -10 2 -24 19 -24 8 0 14 7 14 15 0 15 -21 21 -33 9z"></path>
<path d="M6007 4200 c-3 -11 1 -44 9 -73 7 -28 14 -76 14 -104 0 -32 4 -53 11
-53 7 0 9 25 6 78 -5 69 -24 172 -32 172 -1 0 -5 -9 -8 -20z"></path>
<path d="M3750 4151 c-69 -15 -180 -87 -180 -116 0 -7 17 -24 38 -36 20 -13
43 -29 50 -36 20 -19 34 -16 66 17 19 19 40 31 60 31 61 3 101 -3 119 -18 9
-9 17 -11 17 -6 0 19 -26 33 -81 43 -44 8 -59 7 -89 -6 -19 -9 -39 -23 -43
-30 -11 -19 -57 -13 -68 8 -5 10 -16 18 -23 18 -8 0 -16 7 -20 15 -3 8 -2 15
3 15 7 0 22 11 68 50 19 16 103 32 174 32 73 1 138 -23 179 -67 47 -50 44
-165 -6 -231 -37 -48 -112 -123 -162 -162 -70 -56 -61 -62 93 -62 l135 0 0
-50 0 -50 -219 0 c-121 0 -226 3 -235 6 -9 4 -16 18 -16 34 0 29 57 91 228
246 35 32 68 66 73 77 15 27 20 75 8 82 -5 4 -9 -2 -9 -12 0 -35 -47 -91 -177
-214 l-133 -124 0 -55 0 -55 187 2 c104 2 216 3 250 3 l61 0 -1 64 -2 63 -122
-1 c-100 -1 -123 1 -123 13 0 8 2 12 5 9 10 -9 179 171 203 215 54 101 14 216
-93 269 -44 21 -158 32 -215 19z"></path>
<path d="M750 4095 c0 -8 9 -15 20 -15 11 0 20 7 20 15 0 8 -9 15 -20 15 -11
0 -20 -7 -20 -15z"></path>
<path d="M6080 4096 c0 -10 9 -16 21 -16 24 0 21 23 -4 28 -10 2 -17 -3 -17
-12z"></path>
<path d="M827 4074 c-11 -43 -7 -122 9 -161 7 -17 10 -34 7 -37 -9 -9 9 -146
19 -146 13 0 2 179 -12 195 -5 6 -10 49 -12 95 -2 66 -5 78 -11 54z"></path>
<path d="M6016 3897 c-14 -87 -18 -230 -8 -251 6 -11 16 -39 23 -61 18 -60 90
-166 143 -211 25 -21 61 -51 78 -66 l32 -26 -27 -13 c-31 -14 -36 -29 -9 -29
27 1 65 34 61 55 -2 10 -18 25 -36 35 -17 9 -48 31 -68 48 -19 18 -40 32 -46
32 -6 0 -8 4 -5 8 3 5 -10 24 -29 42 -19 19 -35 40 -35 47 0 7 -9 30 -20 50
-11 21 -20 43 -20 50 0 6 -5 13 -11 15 -16 5 -22 119 -12 221 9 90 0 132 -11
54z"></path>
<path d="M780 3894 c0 -9 7 -14 17 -12 25 5 28 28 4 28 -12 0 -21 -6 -21 -16z"></path>
<path d="M6040 3901 c0 -9 24 -21 41 -21 5 0 9 7 9 15 0 9 -9 15 -25 15 -14 0
-25 -4 -25 -9z"></path>
<path d="M4696 3761 c-3 -4 -33 -11 -65 -15 -33 -4 -63 -11 -66 -16 -4 -6 -14
-10 -23 -10 -15 0 -113 -44 -137 -62 -111 -83 -175 -149 -189 -195 -4 -13 -11
-23 -15 -23 -12 0 -49 -81 -57 -125 -3 -22 -12 -46 -18 -54 -15 -19 -15 -303
0 -322 6 -8 15 -31 18 -52 9 -46 37 -104 84 -172 38 -55 119 -135 136 -135 6
0 16 -8 23 -19 14 -22 122 -76 173 -86 19 -4 41 -12 48 -17 7 -6 31 -8 55 -4
31 5 38 4 27 -4 -11 -8 30 -10 145 -6 163 4 211 14 314 63 36 17 38 18 86 57
43 36 10 33 -44 -4 -24 -16 -59 -35 -77 -42 -19 -7 -34 -15 -34 -18 0 -4 -33
-12 -72 -19 -40 -7 -87 -16 -104 -22 -37 -11 -194 -12 -194 -1 0 7 -99 29
-157 35 -12 1 -20 4 -17 6 4 4 -108 60 -116 57 -3 0 -23 16 -44 37 -22 20 -45
37 -53 37 -7 0 -12 4 -10 9 1 5 -12 25 -29 43 -39 43 -100 146 -109 187 -3 17
-11 33 -16 36 -5 4 -9 21 -9 39 0 24 7 38 30 54 16 12 32 22 35 22 9 0 90 54
93 63 2 4 9 7 15 7 7 0 23 9 37 20 33 26 37 25 54 -7 15 -28 15 -27 16 29 l0
57 -82 -54 c-46 -30 -96 -65 -112 -77 -16 -13 -42 -31 -58 -41 -39 -23 -42
-13 -35 131 5 118 17 166 60 252 26 53 24 50 112 148 61 68 81 83 155 117 100
45 167 66 232 72 27 3 46 8 44 12 -6 9 193 -7 224 -19 14 -5 51 -14 83 -21 31
-7 57 -16 57 -20 0 -4 10 -11 23 -15 25 -8 96 -56 141 -96 39 -35 65 -38 39
-4 -24 32 -87 76 -109 76 -9 0 -14 3 -11 7 10 9 -52 45 -65 37 -6 -4 -8 -3 -5
3 4 7 -8 13 -28 17 -19 4 -35 11 -35 16 0 4 -29 12 -65 15 -36 4 -68 11 -71
16 -7 12 -221 12 -228 0z"></path>
<path d="M3295 3740 l-140 -5 -3 -27 c-2 -16 -7 -28 -12 -28 -5 0 -12 -20 -16
-45 -3 -25 -10 -45 -14 -45 -4 0 -13 -29 -20 -65 -7 -36 -16 -65 -20 -65 -4 0
-11 -16 -14 -35 -4 -19 -13 -47 -21 -62 -8 -15 -15 -36 -15 -46 0 -11 -6 -33
-14 -50 -8 -18 -24 -63 -36 -102 -12 -38 -25 -77 -30 -86 -5 -9 -12 -33 -15
-53 -4 -20 -11 -39 -16 -42 -5 -3 -7 -10 -3 -15 3 -5 1 -16 -5 -23 -9 -10 -8
-15 3 -19 11 -5 17 5 22 39 3 24 10 44 14 44 4 0 11 17 15 38 4 20 10 42 14
47 4 6 26 71 50 145 23 74 46 142 51 150 4 9 13 42 20 73 7 31 16 57 20 57 4
0 10 19 14 42 4 23 10 47 15 53 4 5 13 29 20 52 6 23 16 45 21 48 5 3 62 6
127 7 104 1 118 -1 121 -16 2 -9 -1 -22 -6 -29 -5 -7 -21 -52 -37 -102 -15
-49 -36 -116 -46 -147 -11 -32 -19 -67 -19 -78 0 -11 -4 -20 -9 -20 -5 0 -12
-18 -16 -40 -4 -22 -10 -40 -15 -40 -4 0 -12 -21 -18 -47 -5 -27 -21 -79 -35
-118 -44 -126 -58 -169 -69 -215 -6 -25 -14 -49 -18 -55 -4 -5 -11 -26 -15
-45 -4 -19 -12 -38 -17 -41 -5 -3 -6 -18 -2 -33 5 -23 17 5 66 156 33 100 64
192 68 203 14 36 60 190 60 203 0 6 4 12 9 12 5 0 12 19 16 43 4 23 11 47 15
52 4 6 13 30 20 55 6 25 17 59 25 75 7 17 16 49 20 72 4 24 11 45 16 49 5 3 9
13 9 22 0 9 7 30 15 46 18 35 19 67 3 64 -7 -1 -76 -5 -153 -8z"></path>
<path d="M1410 3734 c0 -13 24 -89 31 -99 3 -5 10 -26 14 -45 4 -19 11 -41 15
-50 5 -8 18 -46 30 -85 12 -38 26 -74 30 -80 4 -5 10 -23 14 -40 12 -54 89
-290 96 -295 4 -3 11 -25 15 -50 4 -25 11 -49 15 -55 4 -5 13 -30 19 -55 7
-25 16 -54 21 -65 11 -27 39 -111 52 -160 6 -22 14 -44 18 -50 4 -5 11 -25 15
-43 9 -42 27 -76 43 -79 15 -4 15 -1 -3 33 -8 16 -15 38 -15 49 0 12 -4 25 -9
30 -4 6 -14 31 -21 58 -7 26 -17 50 -21 53 -5 3 -9 14 -9 25 0 17 -40 148 -60
194 -5 11 -12 31 -15 45 -11 41 -29 80 -38 80 -5 0 -6 9 -2 20 3 10 0 32 -8
47 -8 15 -17 45 -21 66 -4 20 -10 37 -14 37 -4 0 -13 24 -19 53 -14 69 -38
129 -47 120 -4 -4 -4 1 0 10 4 10 2 28 -4 40 -13 28 -40 110 -53 162 -6 21
-14 44 -18 50 -5 5 -11 22 -15 38 l-6 27 139 0 139 0 7 -32 c4 -18 13 -46 20
-63 17 -39 52 -151 60 -192 4 -18 11 -35 16 -38 5 -4 9 -16 9 -28 0 -12 7 -35
15 -51 8 -15 15 -35 15 -43 0 -8 4 -12 9 -9 5 3 9 -4 9 -17 0 -12 9 -53 21
-92 12 -38 27 -88 33 -110 6 -22 14 -42 17 -45 4 -3 12 -32 19 -64 16 -81 35
-99 28 -27 -3 30 -10 57 -15 60 -5 3 -12 25 -16 49 -4 23 -11 42 -16 42 -6 0
-7 5 -3 11 3 6 2 21 -4 32 -6 12 -18 48 -28 80 -9 31 -20 57 -24 57 -5 0 -6 9
-3 20 3 11 1 20 -5 20 -5 0 -12 18 -16 40 -4 27 -10 39 -18 34 -7 -5 -8 -3 -3
6 7 11 -15 100 -35 140 -4 9 -11 31 -15 50 -4 19 -12 38 -17 41 -5 4 -12 24
-15 45 -3 22 -10 42 -15 45 -6 4 -8 11 -4 17 3 6 3 17 0 26 -5 14 -29 16 -170
16 -90 0 -164 -3 -164 -6z"></path>
<path d="M2297 3733 c-3 -5 -19 -55 -36 -113 -18 -58 -36 -112 -41 -121 -13
-25 -34 -102 -31 -116 1 -7 -3 -13 -9 -13 -5 0 -10 -8 -10 -17 0 -10 -6 -30
-14 -45 -8 -15 -17 -42 -21 -60 -4 -18 -11 -37 -15 -43 -4 -5 -13 -34 -20 -64
-7 -30 -19 -66 -26 -80 -8 -14 -14 -33 -14 -42 0 -8 -5 -20 -10 -25 -6 -6 -13
-35 -15 -65 -3 -30 -2 -47 1 -39 3 8 12 29 19 45 7 17 21 55 30 85 9 30 20 62
25 71 5 9 14 44 21 78 7 33 17 61 21 61 4 0 8 5 8 11 0 6 6 25 14 42 7 18 26
73 41 122 15 50 34 104 41 122 8 17 14 40 14 51 0 12 4 23 9 26 5 3 12 18 15
33 4 16 12 40 18 56 l10 27 129 0 c108 0 129 -2 129 -15 0 -8 5 -15 11 -15 6
0 8 -8 4 -19 -3 -11 -2 -22 4 -25 5 -3 12 -24 16 -46 4 -22 10 -42 15 -45 5
-3 11 -24 15 -48 7 -39 8 -40 17 -17 6 15 5 32 -1 45 -5 11 -22 62 -38 113
l-28 92 -147 0 c-81 0 -149 -3 -151 -7z"></path>
<path d="M855 3710 c-3 -5 -3 -14 0 -20 3 -5 2 -10 -3 -10 -5 0 -12 -12 -15
-27 -11 -56 -63 -155 -104 -202 -13 -14 -23 -29 -23 -33 0 -3 -27 -27 -60 -51
-43 -33 -55 -46 -43 -49 20 -4 55 21 47 34 -3 4 3 8 13 8 10 0 30 11 45 25 37
34 101 132 94 144 -4 5 0 13 7 18 22 13 48 74 54 126 6 45 1 58 -12 37z"></path>
<path d="M792 3698 c5 -15 28 -18 29 -3 0 6 -7 12 -17 13 -10 3 -15 -1 -12
-10z"></path>
<path d="M6040 3695 c0 -8 9 -15 20 -15 11 0 20 7 20 15 0 8 -9 15 -20 15 -11
0 -20 -7 -20 -15z"></path>
<path d="M5330 3531 c0 -7 -4 -10 -9 -6 -6 3 -48 -31 -96 -75 -47 -45 -90 -78
-95 -75 -6 4 -7 12 -4 18 4 7 4 9 -1 5 -4 -4 -14 -3 -22 4 -27 22 -20 2 11
-30 l31 -32 100 94 c55 52 96 98 92 102 -4 4 -7 2 -7 -5z"></path>
<path d="M720 3515 c0 -8 7 -15 15 -15 8 0 15 7 15 15 0 8 -7 15 -15 15 -8 0
-15 -7 -15 -15z"></path>
<path d="M6120 3515 c0 -10 7 -15 18 -13 21 4 19 22 -2 26 -10 2 -16 -3 -16
-13z"></path>
<path d="M4742 3509 c-126 -16 -237 -98 -293 -216 -33 -69 -37 -95 -14 -87 8
4 15 14 15 23 0 21 44 104 73 137 70 81 182 128 302 128 73 0 195 -29 195 -46
0 -6 7 -7 16 -4 8 3 13 2 10 -3 -7 -10 17 -21 42 -21 14 1 13 3 -3 12 -11 6
-22 14 -25 17 -24 29 -190 75 -245 70 -5 -1 -38 -5 -73 -10z"></path>
<path d="M2676 3440 c3 -30 10 -58 16 -61 6 -4 7 -12 4 -18 -4 -6 -2 -11 3
-11 6 0 11 -12 11 -26 0 -25 69 -247 96 -311 8 -17 14 -39 14 -50 0 -10 7 -31
15 -47 8 -15 15 -36 16 -45 0 -10 4 -7 10 8 6 16 6 28 -1 35 -5 5 -10 19 -10
29 0 10 -6 33 -13 50 -8 18 -24 66 -37 107 -12 41 -29 87 -36 102 -8 14 -14
36 -14 47 0 12 -4 21 -10 21 -5 0 -7 7 -4 15 4 8 2 21 -4 28 -5 6 -15 37 -22
67 -7 30 -16 60 -20 65 -4 6 -10 19 -14 30 -3 11 -3 -5 0 -35z"></path>
<path d="M6230 3474 c0 -3 12 -21 26 -40 21 -27 24 -37 14 -49 -12 -15 -6 -35
11 -35 5 0 9 7 9 15 0 8 3 15 8 15 11 -1 58 -29 48 -30 -12 0 40 -40 53 -40 6
0 11 -6 11 -12 0 -9 4 -8 11 2 9 13 10 13 7 0 -3 -8 -16 -21 -30 -30 -51 -31
-83 -55 -91 -68 -6 -9 -18 -11 -38 -7 -22 5 -29 3 -29 -9 0 -9 5 -16 10 -16
16 0 11 -19 -14 -53 -38 -52 -76 -136 -76 -170 0 -24 -3 -28 -10 -17 -7 12
-10 8 -11 -15 0 -16 -2 -43 -3 -60 -2 -31 4 -80 27 -203 11 -57 11 -90 2 -150
-6 -43 -14 -83 -18 -90 -5 -6 -4 -19 1 -28 6 -11 13 -1 25 43 20 66 18 216 -3
318 -20 99 -9 188 36 275 21 41 45 81 52 89 7 8 21 25 29 38 18 27 126 113
142 113 6 0 11 9 11 20 0 11 1 23 1 27 1 4 -16 17 -37 29 -38 21 -144 122
-144 137 0 4 -7 7 -15 7 -8 0 -15 -3 -15 -6z"></path>
<path d="M6035 3340 c8 -13 79 -44 98 -42 9 0 17 -3 17 -8 0 -10 -25 -20 -50
-20 -10 0 -25 -6 -32 -13 -7 -8 -27 -18 -43 -24 -17 -5 -31 -17 -33 -26 -5
-23 11 -21 45 6 32 27 94 57 116 57 22 0 47 11 47 20 0 5 -15 12 -32 15 -18 4
-38 11 -43 16 -15 11 -96 29 -90 19z"></path>
<path d="M2434 3332 c-6 -4 -16 -29 -24 -57 -7 -27 -16 -54 -20 -60 -4 -5 -11
-26 -15 -45 -4 -19 -11 -41 -16 -50 -10 -18 -33 -102 -31 -112 1 -5 -2 -8 -7
-8 -5 0 -12 -16 -16 -36 -3 -20 -10 -44 -15 -53 -15 -26 -60 -172 -60 -192 0
-11 -5 -19 -11 -19 -6 0 -9 -9 -6 -20 3 -11 1 -20 -4 -20 -5 0 -9 -8 -9 -18 0
-10 -4 -22 -9 -28 -5 -5 -17 -35 -26 -67 -10 -33 -23 -61 -29 -63 -6 -1 -64
-4 -128 -6 -103 -3 -115 -1 -104 12 13 16 50 121 61 177 4 18 11 35 16 38 5 4
9 16 9 28 0 12 6 34 14 49 8 15 17 42 21 60 l6 33 -19 -22 c-10 -11 -26 -47
-36 -80 -9 -32 -21 -65 -25 -73 -4 -8 -21 -59 -37 -114 -26 -87 -32 -100 -56
-108 -59 -21 -22 -28 138 -28 146 0 165 2 160 16 -3 8 -2 12 4 9 6 -3 10 3 10
14 0 11 5 23 11 26 6 4 8 14 4 23 -3 8 -2 18 2 21 5 3 18 35 30 71 12 36 45
130 72 210 28 80 51 151 51 158 0 8 6 28 14 45 15 32 45 126 65 205 7 23 17
42 22 42 6 0 9 -6 6 -14 -3 -7 1 -26 8 -40 8 -15 17 -43 21 -62 5 -25 9 -32
15 -22 6 9 9 2 10 -22 1 -46 11 -74 27 -77 14 -3 16 13 2 22 -6 4 -8 11 -4 16
3 5 1 15 -4 22 -5 7 -13 28 -17 47 -4 19 -11 40 -15 45 -4 6 -14 36 -21 68
-13 61 -19 70 -35 59z"></path>
<path d="M6173 3210 c-20 -23 -27 -53 -10 -43 20 11 57 48 57 56 0 14 -31 7
-47 -13z"></path>
<path d="M5951 3176 c-28 -30 -14 -41 19 -15 14 10 19 19 12 19 -7 0 -10 5 -7
10 11 18 -1 11 -24 -14z"></path>
<path d="M5893 3110 c-18 -19 -47 -63 -65 -99 -32 -64 -33 -69 -33 -191 1
-136 4 -169 17 -187 5 -6 9 -56 10 -111 0 -98 0 -100 -43 -187 -38 -76 -55
-98 -119 -153 -41 -35 -88 -71 -105 -79 -35 -19 -45 -31 -38 -50 6 -16 99 -18
108 -3 4 6 32 10 63 9 155 -4 251 37 369 158 59 60 93 120 83 148 -5 15 -9 11
-24 -19 -29 -61 -59 -100 -114 -149 -69 -62 -87 -71 -113 -56 -21 11 -21 11 5
38 14 15 26 31 26 35 0 4 14 21 30 38 17 17 29 33 26 35 -3 3 4 15 15 26 20
22 43 88 41 119 0 10 3 20 9 23 13 8 12 185 -1 185 -6 0 -8 10 -5 23 3 12 -1
60 -8 107 -11 72 -15 82 -24 65 -8 -14 -8 -35 -2 -65 30 -144 37 -231 25 -280
-3 -14 -7 -34 -9 -45 -2 -11 -13 -42 -25 -69 -12 -27 -22 -52 -22 -55 0 -12
-72 -105 -102 -133 -15 -14 -24 -29 -20 -33 4 -5 1 -5 -6 -1 -7 5 -21 2 -30
-7 -26 -22 -130 -68 -168 -74 -19 -3 -37 -10 -40 -14 -7 -11 -44 -12 -44 -1 0
4 6 14 13 21 10 11 9 12 -2 6 -9 -5 -12 -4 -7 3 4 7 13 12 20 12 8 0 40 20 72
45 31 25 55 45 52 45 -4 0 6 13 20 28 44 47 63 75 69 105 3 15 9 27 13 27 26
0 44 174 27 265 -3 17 -10 55 -16 85 -19 104 -19 172 1 225 11 27 24 64 30 80
6 17 26 49 45 73 43 52 39 78 -4 32z m-23 -985 c0 -17 -82 -55 -121 -55 -38 0
-37 17 1 25 17 4 30 10 30 15 0 9 46 28 73 29 9 1 17 -6 17 -14z"></path>
<path d="M6113 3133 c-20 -7 -81 -114 -88 -155 -4 -21 -11 -38 -16 -38 -12 0
-11 -41 0 -59 6 -10 11 -1 16 28 6 39 39 110 87 189 21 34 21 42 1 35z"></path>
<path d="M735 3050 c-7 -12 2 -30 16 -30 12 0 12 27 0 35 -5 3 -12 1 -16 -5z"></path>
<path d="M6115 3050 c-4 -6 -3 -16 3 -22 6 -6 12 -6 17 2 4 6 3 16 -3 22 -6 6
-12 6 -17 -2z"></path>
<path d="M4425 2999 c5 -76 35 -132 111 -206 84 -81 154 -106 296 -106 54 1
104 5 111 11 6 5 31 16 55 23 23 6 42 16 42 20 0 4 8 10 19 14 10 3 31 19 47
35 16 16 34 30 41 30 6 0 33 -22 60 -50 26 -27 54 -50 61 -50 6 0 12 -4 12
-10 0 -5 7 -10 15 -10 24 0 17 -33 -14 -67 -22 -25 -25 -33 -14 -37 8 -3 11
-1 8 4 -3 6 0 10 8 10 15 0 57 41 57 57 0 5 -43 51 -96 102 l-97 91 -47 -44
c-26 -24 -74 -57 -106 -72 -55 -27 -67 -29 -174 -28 -102 0 -121 3 -170 26
-88 41 -178 139 -196 215 -4 15 -10 33 -14 38 -5 6 -11 21 -14 35 -2 14 -3 0
-1 -31z"></path>
<path d="M2528 3018 c5 -7 13 -29 17 -48 4 -19 10 -37 14 -40 5 -5 23 -62 53
-177 6 -24 17 -43 25 -43 15 0 9 36 -13 79 -8 14 -14 32 -14 40 0 15 -34 126
-54 174 -6 15 -17 27 -25 27 -9 0 -10 -4 -3 -12z"></path>
<path d="M2877 2860 c3 -11 0 -20 -6 -20 -6 0 -8 -7 -4 -17 4 -11 3 -14 -5 -9
-8 5 -12 0 -12 -12 0 -11 -7 -33 -15 -48 -8 -16 -15 -38 -15 -49 0 -11 -6 -32
-14 -47 -8 -15 -17 -42 -21 -60 -4 -18 -11 -37 -15 -43 -15 -21 -21 -65 -8
-65 7 0 21 28 32 63 41 135 70 223 82 254 16 36 18 73 5 73 -5 0 -7 -9 -4 -20z"></path>
<path d="M794 2859 c-10 -17 13 -36 27 -22 12 12 4 33 -11 33 -5 0 -12 -5 -16
-11z"></path>
<path d="M6044 2859 c-10 -17 13 -36 27 -22 12 12 4 33 -11 33 -5 0 -12 -5
-16 -11z"></path>
<path d="M2640 2684 c1 -11 8 -37 16 -59 9 -22 20 -58 25 -80 6 -22 15 -52 22
-68 l12 -27 164 2 164 3 9 30 c5 17 13 39 18 50 15 34 30 99 30 130 -1 20 -13
-7 -37 -77 l-36 -108 -119 0 c-77 0 -117 -4 -113 -10 3 -6 -4 -10 -18 -10 -28
0 -53 24 -62 63 -4 15 -10 27 -14 27 -4 0 -13 29 -20 65 -7 35 -19 69 -27 76
-11 9 -14 8 -14 -7z"></path>
<path d="M772 2654 c4 -21 22 -23 26 -1 2 10 -3 17 -13 17 -10 0 -15 -6 -13
-16z"></path>
<path d="M6070 2649 c0 -24 23 -21 28 4 2 10 -3 17 -12 17 -10 0 -16 -9 -16
-21z"></path>
<path d="M756 2461 c-7 -11 18 -33 27 -24 4 3 7 12 7 20 0 15 -26 18 -34 4z"></path>
<path d="M6082 2454 c4 -21 22 -23 26 -1 2 10 -3 17 -13 17 -10 0 -15 -6 -13
-16z"></path>
<path d="M837 2284 c-8 -8 3 -34 14 -34 11 0 12 27 0 34 -4 3 -11 3 -14 0z"></path>
<path d="M6007 2275 c-8 -18 11 -31 25 -17 11 11 3 32 -12 32 -4 0 -10 -7 -13
-15z"></path>
</g>
</svg>